<?xml version="1.0" encoding="UTF-8" standalone="no"?>
<!-- Created with Inkscape (http://www.inkscape.org/) -->

<svg
   width="55.652206mm"
   height="15.543932mm"
   viewBox="0 0 55.652206 15.543932"
   version="1.1"
   id="svg1"
   xml:space="preserve"
   xmlns:xlink="http://www.w3.org/1999/xlink"
   xmlns="http://www.w3.org/2000/svg"
   xmlns:svg="http://www.w3.org/2000/svg"><defs
     id="defs1"><color-profile
       name="sRGB"
       xlink:href="file:///usr/share/color/icc/colord/sRGB.icc"
       id="color-profile2" /></defs><g
     id="layer1"
     transform="translate(-74.046251,-200.90942)"><g
       id="g141"
       transform="translate(-8.4596948,18.430049)"><path
         style="fill:#6ed6ff;fill-opacity:1;stroke:none;stroke-width:1;stroke-dasharray:18, 1, 4, 1, 2, 1, 2, 1, 4, 1, 2, 1, 4, 1, 4, 1, 2, 1, 4, 1, 2, 1, 2, 1, 4, 1, 2, 1, 4, 1, 4, 1, 2, 1;stroke-dashoffset:0;stroke-opacity:1;paint-order:stroke markers fill"
         d="m 95.232272,185.23386 6.601928,4.37409 -4.392878,3.79608 -6.94246,1.13243 -6.88808,-4.4468 4.88726,-3.82668 z"
         id="path136" /><path
         id="path137"
         style="baseline-shift:baseline;display:inline;overflow:visible;opacity:1;vector-effect:none;fill:#ccff00;fill-opacity:1;stroke-dasharray:3, 1, 4, 1, 2, 1, 2, 1, 4, 1, 2, 1, 4, 1, 4, 1, 2, 1;paint-order:stroke markers fill;enable-background:accumulate;stop-color:#000000;stop-opacity:1"
         d="m 95.752912,182.47937 -1.30638,2.69958 0.9002,0.43563 0.14004,-0.28939 6.736028,4.15375 -5.006418,3.0918 0.64544,0.87902 5.382098,-3.36827 v -1.21956 l -7.287408,-4.50671 0.69712,-1.44022 z m -7.14582,3.01429 -5.4529,3.36827 v 1.21956 l 6.85488,4.26847 -0.35347,0.73122 0.90021,0.43564 0.87126,-1.80093 -0.90072,-0.43563 -0.0455,0.0941 -6.30556,-3.89537 5.00589,-3.07061 z m 5.4038,0.58549 -1.74201,3.60185 0.9002,0.43511 1.74253,-3.60133 z m -2.17764,4.50205 -0.87127,1.79886 0.90072,0.43563 0.87075,-1.79886 z m -2.61328,5.40019 -0.81649,1.69137 h 3.71502 v -0.99994 h -2.12132 l 0.12299,-0.2558 z m 3.89847,0.69143 v 0.99994 h 1.99988 v -0.99994 z m 2.99982,0 v 0.99994 h 4.000268 v -0.99994 z m 5.000208,0 v 0.99994 h 3.99976 v -0.99994 z m 4.99969,0 v 0.99994 h 2.0004 v -0.99994 z m 3.00034,0 v 0.99994 h 2.99982 v -0.99994 z m 3.99975,0 v 0.99994 h 4.00028 v -0.99994 z m 5.00022,0 v 0.99994 h 1.99987 v -0.99994 z m 2.99981,0 v 0.99994 h 1.99988 v -0.99994 z m 3.00034,0 v 0.99994 h 3.99975 v -0.99994 z m 4.99969,0 v 0.99994 h 1.99988 v -0.99994 z m 3.00033,0 v 0.99994 h 3.99976 v -0.99994 z" /><path
         id="path138"
         style="baseline-shift:baseline;display:inline;overflow:visible;opacity:1;vector-effect:none;stroke-dasharray:3, 1, 4, 1, 2, 1, 2, 1, 4, 1, 2, 1, 4, 1, 4, 1, 2, 1;paint-order:stroke markers fill;enable-background:accumulate;stop-color:#000000;stop-opacity:1"
         d="m 95.104662,182.82992 -1.30638,2.69958 0.9002,0.43563 0.14004,-0.28939 6.736028,4.15375 -5.006418,3.0918 0.64544,0.87902 5.382098,-3.36827 v -1.21956 l -7.287408,-4.50671 0.69712,-1.44022 z m -7.14582,3.01429 -5.4529,3.36827 v 1.21956 l 6.85488,4.26847 -0.35347,0.73122 0.90021,0.43564 0.87126,-1.80093 -0.90072,-0.43563 -0.0455,0.0941 -6.30556,-3.89537 5.00589,-3.07061 z m 5.4038,0.58549 -1.74201,3.60185 0.9002,0.43511 1.74253,-3.60133 z m -2.17764,4.50205 -0.87127,1.79886 0.90072,0.43563 0.87075,-1.79886 z m -2.61328,5.40019 -0.81649,1.69137 h 3.71502 v -0.99994 h -2.12132 l 0.12299,-0.2558 z m 3.89847,0.69143 v 0.99994 h 1.99988 v -0.99994 z m 2.99982,0 v 0.99994 h 4.00027 v -0.99994 z m 5.000208,0 v 0.99994 h 3.99976 v -0.99994 z m 4.99969,0 v 0.99994 h 2.0004 v -0.99994 z m 3.00034,0 v 0.99994 h 2.99982 v -0.99994 z m 3.99975,0 v 0.99994 h 4.00028 v -0.99994 z m 5.00022,0 v 0.99994 h 1.99987 v -0.99994 z m 2.99981,0 v 0.99994 h 1.99988 v -0.99994 z m 3.00034,0 v 0.99994 h 3.99975 v -0.99994 z m 4.99969,0 v 0.99994 h 1.99988 v -0.99994 z m 3.00033,0 v 0.99994 h 3.99976 v -0.99994 z" /><g
         id="g140"
         transform="translate(-20.258562,61.350614)"><text
           xml:space="preserve"
           style="font-size:13.8274px;text-align:start;writing-mode:lr-tb;direction:ltr;text-anchor:start;fill:#ccff00;fill-opacity:1;stroke:#000000;stroke-width:2;stroke-dasharray:none;stroke-opacity:1;paint-order:stroke markers fill"
           x="125.72213"
           y="133.10464"
           id="text138"><tspan
             id="tspan138"
             style="font-style:italic;font-variant:normal;font-weight:800;font-stretch:normal;font-size:13.8274px;font-family:Poppins;-inkscape-font-specification:'Poppins Ultra-Bold';fill:#ccff00;fill-opacity:1;stroke:#000000;stroke-width:2;stroke-dasharray:none;stroke-opacity:1;paint-order:stroke markers fill"
             x="125.72213"
             y="133.10464">LMX</tspan></text><path
           style="font-style:italic;font-weight:800;font-size:13.8274px;font-family:Poppins;-inkscape-font-specification:'Poppins Ultra-Bold';baseline-shift:baseline;display:inline;overflow:visible;vector-effect:none;fill:#6ed6ff;fill-opacity:1;paint-order:stroke markers fill;enable-background:accumulate;stop-color:#000000"
           d="m 128.3362,131.7945 h 3.0282 l -0.37334,2.06028 h -5.7522 l 1.72843,-9.74832 h 2.71017 z m 16.80028,-7.68804 -1.72842,9.74832 h -2.69635 l 0.95409,-5.39269 -2.80696,5.39269 h -2.26769 l -0.88496,-5.42034 -0.95409,5.42034 h -2.72399 l 1.72842,-9.74832 h 3.27709 l 1.34126,6.31912 3.49833,-6.31912 z m 6.65097,4.92256 2.46128,4.82576 h -3.19413 l -1.39657,-2.75165 -2.11559,2.75165 h -3.08351 l 4.05143,-4.99169 -2.43362,-4.75663 h 3.19412 l 1.36892,2.68252 2.04645,-2.68252 h 3.08351 z"
           id="path139" /><path
           id="path140"
           style="font-style:italic;font-weight:800;font-size:13.8274px;font-family:Poppins;-inkscape-font-specification:'Poppins Ultra-Bold';baseline-shift:baseline;display:inline;overflow:visible;vector-effect:none;fill:#000000;fill-opacity:1;paint-order:stroke markers fill;enable-background:accumulate;stop-color:#000000"
           d="m 126.6822,122.35625 -2.08411,11.74812 h 6.78925 0.99219 3.76359 l 0.078,-0.44338 0.0724,0.44338 h 3.72484 l 0.0801,-0.15399 -0.0274,0.15399 h 2.84169 1.8867 3.78737 l 1.449,-1.88464 0.95705,1.88464 h 5.44153 l -2.90835,-5.70094 4.89066,-6.04718 h -5.67407 l -1.38286,1.81281 -0.92346,-1.81281 h -3.55482 -1.88671 -3.15846 l -2.48822,4.4943 -0.95292,-4.4943 h -4.92373 l -1.36322,7.6879 h -2.02934 l 1.33946,-7.6879 z m 0.83768,0.99994 h 2.70991 l -1.34101,7.68842 h 3.02824 l -0.37362,2.05982 h -5.7521 z m 6.78925,0 h 3.2768 l 1.34152,6.31951 3.49798,-6.31951 h 3.26336 l -1.72857,9.74824 h -2.69596 l 0.95394,-5.39243 -2.80706,5.39243 h -2.26756 l -0.88522,-5.42034 -0.95395,5.42034 h -2.72386 z m 12.32017,0 h 3.19412 l 1.36891,2.68252 2.04639,-2.68252 h 3.08353 l -3.98218,4.9227 2.46083,4.82554 h -3.19412 l -1.3963,-2.75125 -2.11563,2.75125 h -3.08354 l 4.05144,-4.99142 z m -0.23409,1.74046 1.48053,2.89285 -2.5492,3.14038 z" /></g></g></g></svg>
